<mxfile host="app.diagrams.net" modified="2023-07-21T06:08:06.638Z" agent="Mozilla/5.0 (Windows NT 10.0; Win64; x64) AppleWebKit/537.36 (KHTML, like Gecko) Chrome/114.0.0.0 Safari/537.36" etag="x2UQhF7Oc9lgmiKCLire" version="21.6.5" type="device">
  <diagram name="Page-1" id="r7CI_CyjyYqelFzKORAY">
    <mxGraphModel dx="1434" dy="764" grid="1" gridSize="10" guides="1" tooltips="1" connect="1" arrows="1" fold="1" page="1" pageScale="1" pageWidth="1654" pageHeight="1169" math="0" shadow="0">
      <root>
        <mxCell id="0" />
        <mxCell id="1" parent="0" />
        <mxCell id="C9mQROaclRbwPR-QOOD5-3" value="" style="edgeStyle=orthogonalEdgeStyle;rounded=0;orthogonalLoop=1;jettySize=auto;html=1;fontSize=23;" parent="1" source="C9mQROaclRbwPR-QOOD5-1" target="C9mQROaclRbwPR-QOOD5-2" edge="1">
          <mxGeometry relative="1" as="geometry" />
        </mxCell>
        <mxCell id="C9mQROaclRbwPR-QOOD5-1" value="POS" style="rounded=0;whiteSpace=wrap;html=1;fontSize=23;" parent="1" vertex="1">
          <mxGeometry x="300" y="710" width="120" height="60" as="geometry" />
        </mxCell>
        <mxCell id="C9mQROaclRbwPR-QOOD5-5" value="" style="edgeStyle=orthogonalEdgeStyle;rounded=0;orthogonalLoop=1;jettySize=auto;html=1;fontSize=23;" parent="1" source="C9mQROaclRbwPR-QOOD5-2" target="C9mQROaclRbwPR-QOOD5-4" edge="1">
          <mxGeometry relative="1" as="geometry" />
        </mxCell>
        <mxCell id="C9mQROaclRbwPR-QOOD5-2" value="SRS" style="rounded=0;whiteSpace=wrap;html=1;fontSize=23;" parent="1" vertex="1">
          <mxGeometry x="710" y="710" width="120" height="60" as="geometry" />
        </mxCell>
        <mxCell id="C9mQROaclRbwPR-QOOD5-4" value="IAS&lt;br&gt;AAS" style="rounded=0;whiteSpace=wrap;html=1;fontSize=23;" parent="1" vertex="1">
          <mxGeometry x="990" y="710" width="120" height="60" as="geometry" />
        </mxCell>
        <mxCell id="C9mQROaclRbwPR-QOOD5-18" style="edgeStyle=orthogonalEdgeStyle;rounded=0;orthogonalLoop=1;jettySize=auto;html=1;dashed=1;dashPattern=12 12;endArrow=none;endFill=0;" parent="1" source="C9mQROaclRbwPR-QOOD5-6" edge="1">
          <mxGeometry relative="1" as="geometry">
            <mxPoint x="560" y="740" as="targetPoint" />
          </mxGeometry>
        </mxCell>
        <mxCell id="C9mQROaclRbwPR-QOOD5-6" value="Fields 63&lt;br&gt;(Table 95)&lt;br&gt;...&lt;br&gt;...&lt;br&gt;..." style="rounded=1;whiteSpace=wrap;html=1;fontSize=23;" parent="1" vertex="1">
          <mxGeometry x="500" y="400" width="120" height="260" as="geometry" />
        </mxCell>
        <mxCell id="C9mQROaclRbwPR-QOOD5-14" style="edgeStyle=orthogonalEdgeStyle;rounded=0;orthogonalLoop=1;jettySize=auto;html=1;" parent="1" source="C9mQROaclRbwPR-QOOD5-7" target="C9mQROaclRbwPR-QOOD5-13" edge="1">
          <mxGeometry relative="1" as="geometry" />
        </mxCell>
        <mxCell id="kZUTQ3o8J0YF6cdtg4ez-4" style="edgeStyle=orthogonalEdgeStyle;rounded=0;orthogonalLoop=1;jettySize=auto;html=1;" edge="1" parent="1" source="C9mQROaclRbwPR-QOOD5-7" target="kZUTQ3o8J0YF6cdtg4ez-3">
          <mxGeometry relative="1" as="geometry" />
        </mxCell>
        <mxCell id="C9mQROaclRbwPR-QOOD5-7" value="Token CA&lt;br&gt;...&lt;br&gt;...&lt;br&gt;" style="rounded=1;whiteSpace=wrap;html=1;fontSize=23;" parent="1" vertex="1">
          <mxGeometry x="720" y="330" width="120" height="260" as="geometry" />
        </mxCell>
        <mxCell id="C9mQROaclRbwPR-QOOD5-10" style="edgeStyle=orthogonalEdgeStyle;rounded=0;orthogonalLoop=1;jettySize=auto;html=1;" parent="1" source="C9mQROaclRbwPR-QOOD5-9" target="C9mQROaclRbwPR-QOOD5-7" edge="1">
          <mxGeometry relative="1" as="geometry" />
        </mxCell>
        <mxCell id="C9mQROaclRbwPR-QOOD5-17" style="edgeStyle=orthogonalEdgeStyle;rounded=0;orthogonalLoop=1;jettySize=auto;html=1;" parent="1" source="C9mQROaclRbwPR-QOOD5-9" target="C9mQROaclRbwPR-QOOD5-13" edge="1">
          <mxGeometry relative="1" as="geometry" />
        </mxCell>
        <mxCell id="C9mQROaclRbwPR-QOOD5-9" value="&lt;font style=&quot;font-size: 21px;&quot;&gt;內部交換格式&lt;br&gt;&lt;/font&gt;" style="text;html=1;align=center;verticalAlign=middle;whiteSpace=wrap;rounded=0;glass=0;strokeColor=default;" parent="1" vertex="1">
          <mxGeometry x="1000" y="230" width="210" height="30" as="geometry" />
        </mxCell>
        <mxCell id="C9mQROaclRbwPR-QOOD5-13" value="&lt;h1&gt;Token CA tableID 95&amp;nbsp;&lt;br&gt;&lt;/h1&gt;&lt;p&gt;&lt;font style=&quot;font-size: 21px;&quot;&gt;指的是Table Id 95的資料塞入Token CA 的格式內，在內部系統使用&lt;/font&gt;&lt;/p&gt;" style="text;html=1;strokeColor=none;fillColor=none;spacing=5;spacingTop=-20;whiteSpace=wrap;overflow=hidden;rounded=0;labelBorderColor=default;" parent="1" vertex="1">
          <mxGeometry x="930" y="380" width="350" height="160" as="geometry" />
        </mxCell>
        <mxCell id="kZUTQ3o8J0YF6cdtg4ez-3" value="&lt;font style=&quot;font-size: 18px;&quot;&gt;未來Token 將不再使用&lt;/font&gt;" style="text;html=1;align=center;verticalAlign=middle;resizable=0;points=[];autosize=1;strokeColor=none;fillColor=none;labelBorderColor=default;" vertex="1" parent="1">
          <mxGeometry x="910" y="550" width="200" height="40" as="geometry" />
        </mxCell>
      </root>
    </mxGraphModel>
  </diagram>
</mxfile>
